<svg xmlns="http://www.w3.org/2000/svg" xmlns:xlink="http://www.w3.org/1999/xlink" preserveAspectRatio="xMidYMid" width="65" height="66.75" viewBox="0 0 65 66.75">
  <defs>
    <style>
      .cls-1, .cls-5 {
        fill: #f06939;
      }

      .cls-1, .cls-2 {
        stroke: #363636;
        stroke-linejoin: round;
        stroke-width: 2px;
      }

      .cls-1, .cls-2, .cls-3, .cls-5 {
        fill-rule: evenodd;
      }

      .cls-2 {
        fill: #fff;
      }

      .cls-3 {
        fill: #363636;
      }

      .cls-4 {
        fill: #dae135;
      }
    </style>
  </defs>
  <g>
    <path d="M15.000,35.000 L7.000,59.000 L31.000,50.999 L15.000,35.000 Z" class="cls-1"/>
    <path d="M16.000,28.000 C16.000,28.000 5.875,27.750 1.000,31.999 C3.688,27.687 10.312,15.875 27.000,16.000 C25.375,17.875 16.000,28.000 16.000,28.000 Z" class="cls-2"/>
    <path d="M37.084,50.923 C37.084,50.923 36.956,61.050 32.527,65.763 C36.937,63.238 48.988,57.059 49.486,40.378 C47.551,41.932 37.084,50.923 37.084,50.923 Z" class="cls-2"/>
    <path d="M11.000,34.000 L31.000,54.999 C31.000,54.999 64.000,41.333 64.000,1.000 C60.333,1.000 28.500,0.666 11.000,34.000 Z" class="cls-2"/>
    <path d="M28.000,42.414 L26.586,41.000 L28.000,39.585 L29.414,41.000 L28.000,42.414 ZM23.586,38.000 L25.000,36.586 L26.414,38.000 L25.000,39.414 L23.586,38.000 ZM20.586,34.999 L22.000,33.585 L23.414,34.999 L22.000,36.414 L20.586,34.999 Z" class="cls-3"/>
    <circle cx="45" cy="21" r="6" class="cls-4"/>
    <path d="M46.000,4.000 L59.000,17.000 C59.000,17.000 61.000,9.979 61.000,2.000 C52.937,2.000 46.000,4.000 46.000,4.000 Z" class="cls-5"/>
  </g>
</svg>
