<svg xmlns="http://www.w3.org/2000/svg" xmlns:xlink="http://www.w3.org/1999/xlink" preserveAspectRatio="xMidYMid" width="62.688" height="65.91" viewBox="0 0 62.688 65.91">
  <defs>
    <style>
      .cls-1, .cls-3 {
        fill: #fff;
        stroke: #363636;
        stroke-linejoin: round;
        stroke-width: 2px;
      }

      .cls-2 {
        fill: #dae135;
      }

      .cls-3, .cls-4 {
        fill-rule: evenodd;
      }

      .cls-4 {
        fill: #363636;
      }

      .cls-5, .cls-6 {
        font-size: 24px;
      }

      .cls-6 {
        fill: #404041;
        text-anchor: middle;
        font-family: "Roboto Condensed";
      }
    </style>
  </defs>
  <g>
    <circle cx="33" cy="20" r="19" class="cls-1"/>
    <circle cx="33" cy="20" r="14" class="cls-2"/>
    <rect x="1" y="38" width="11" height="23" class="cls-1"/>
    <path d="M10.000,40.000 L21.000,40.000 L27.000,44.000 L39.000,44.000 C39.000,44.000 43.000,43.937 43.000,48.000 C43.000,52.062 39.000,51.999 39.000,51.999 L43.000,51.999 C43.000,51.999 50.656,48.500 55.000,46.999 C59.344,45.499 61.000,46.999 61.000,46.999 C61.000,46.999 63.469,49.187 59.000,53.000 C54.531,56.812 39.000,64.000 39.000,64.000 C39.000,64.000 35.094,66.062 31.000,64.000 C26.906,61.937 16.594,58.968 15.000,59.000 C13.406,59.031 10.000,59.000 10.000,59.000 L10.000,40.000 Z" class="cls-3"/>
    <path d="M25.000,52.999 L27.000,52.999 C27.000,52.999 27.031,50.999 29.000,50.999 C30.969,50.999 38.000,50.999 38.000,50.999 L38.000,49.000 L29.000,49.000 C29.000,49.000 25.000,49.093 25.000,52.999 Z" class="cls-4"/>
    <path d="M4.000,56.000 L4.000,53.000 L7.000,53.000 L7.000,56.000 L4.000,56.000 ZM4.000,47.000 L7.000,47.000 L7.000,50.000 L4.000,50.000 L4.000,47.000 ZM4.000,41.000 L7.000,41.000 L7.000,44.000 L4.000,44.000 L4.000,41.000 Z" class="cls-4"/>
    <text x="33" y="28" class="cls-5"><tspan class="cls-6">₽</tspan></text>
  </g>
</svg>
