<svg xmlns="http://www.w3.org/2000/svg" xmlns:xlink="http://www.w3.org/1999/xlink" preserveAspectRatio="xMidYMid" width="65" height="66" viewBox="0 0 65 66">
  <defs>
    <style>
      .cls-1 {
        fill: #fff;
      }

      .cls-1, .cls-4 {
        stroke: #363636;
        stroke-linejoin: round;
        stroke-width: 2px;
      }

      .cls-1, .cls-3 {
        fill-rule: evenodd;
      }

      .cls-2, .cls-4 {
        fill: #dae135;
      }

      .cls-3 {
        fill: #363636;
      }
    </style>
  </defs>
  <g>
    <path d="M1.000,15.000 L1.000,65.000 L45.000,65.000 L45.000,1.000 L15.000,1.000 L1.000,15.000 Z" class="cls-1"/>
    <path d="M16.000,1.000 L16.000,15.999 L1.000,15.999 L16.000,1.000 Z" class="cls-1"/>
    <rect x="10" y="23" width="27" height="12" class="cls-2"/>
    <path d="M33.000,10.000 L33.000,8.000 L35.000,8.000 L35.000,10.000 L33.000,10.000 ZM28.000,8.000 L30.000,8.000 L30.000,10.000 L28.000,10.000 L28.000,8.000 ZM23.000,8.000 L25.000,8.000 L25.000,10.000 L23.000,10.000 L23.000,8.000 Z" class="cls-3"/>
    <path d="M8.000,55.000 L8.000,53.000 L36.000,53.000 L36.000,55.000 L8.000,55.000 ZM8.000,47.000 L36.000,47.000 L36.000,49.000 L8.000,49.000 L8.000,47.000 ZM8.000,41.000 L36.000,41.000 L36.000,43.000 L8.000,43.000 L8.000,41.000 ZM14.000,27.000 L30.000,27.000 L30.000,29.000 L14.000,29.000 L14.000,27.000 Z" class="cls-3"/>
    <rect x="52" y="1" width="12" height="30" class="cls-4"/>
    <path d="M51.000,5.999 L51.000,7.999 L49.000,7.999 L49.000,30.000 L47.000,30.000 L47.000,5.999 L51.000,5.999 Z" class="cls-3"/>
    <path d="M53.000,29.000 L53.000,56.000 L63.000,56.000 L63.000,29.000 L61.000,29.000 L61.000,29.000 L55.000,29.000 L55.000,29.000 L53.000,29.000 Z" class="cls-1"/>
    <path d="M53.000,53.999 L58.000,65.000 L63.000,53.999 L53.000,53.999 Z" class="cls-1"/>
  </g>
</svg>
