<svg xmlns="http://www.w3.org/2000/svg" xmlns:xlink="http://www.w3.org/1999/xlink" preserveAspectRatio="xMidYMid" width="66.66" height="64.22" viewBox="0 0 66.66 64.22">
  <defs>
    <style>
      .cls-1 {
        fill: #fff;
      }

      .cls-1, .cls-3 {
        stroke: #363636;
        stroke-linejoin: round;
        stroke-width: 2px;
      }

      .cls-1, .cls-2, .cls-3 {
        fill-rule: evenodd;
      }

      .cls-2, .cls-4 {
        fill: #363636;
      }

      .cls-3 {
        fill: #dae135;
      }
    </style>
  </defs>
  <g>
    <path d="M31.037,53.811 L37.997,43.993 L42.273,40.441 L47.683,29.730 C47.683,29.730 49.431,26.132 53.057,27.963 C56.683,29.795 54.824,33.337 54.824,33.337 L56.628,29.767 C56.628,29.767 56.956,21.355 57.576,16.802 C58.195,12.248 60.281,11.446 60.281,11.446 C60.281,11.446 63.347,10.229 64.735,15.937 C66.123,21.645 65.535,38.748 65.535,38.748 C65.535,38.748 65.614,43.165 61.928,45.889 C58.241,48.613 50.941,56.479 50.250,57.915 C49.560,59.352 47.996,62.378 47.996,62.378 L31.037,53.811 Z" class="cls-1"/>
    <path d="M49.747,44.842 L50.649,43.058 C50.649,43.058 48.878,42.127 49.766,40.370 C50.654,38.613 53.824,32.337 53.824,32.337 L52.039,31.435 L47.981,39.469 C47.981,39.469 46.261,43.081 49.747,44.842 Z" class="cls-2"/>
    <path d="M35.994,53.665 L28.959,43.859 L24.637,40.312 L19.167,29.614 C19.167,29.614 17.401,26.020 13.735,27.849 C10.070,29.679 11.949,33.217 11.949,33.217 L10.126,29.651 C10.126,29.651 9.795,21.249 9.168,16.701 C8.542,12.153 6.433,11.352 6.433,11.352 C6.433,11.352 3.334,10.137 1.931,15.838 C0.528,21.538 1.123,38.621 1.123,38.621 C1.123,38.621 1.042,43.032 4.769,45.753 C8.496,48.473 15.875,56.330 16.573,57.765 C17.271,59.199 18.852,62.222 18.852,62.222 L35.994,53.665 Z" class="cls-1"/>
    <path d="M15.070,44.707 L14.159,42.924 C14.159,42.924 15.949,41.995 15.052,40.240 C14.154,38.485 10.949,32.217 10.949,32.217 L12.754,31.316 L16.856,39.339 C16.856,39.339 18.595,42.947 15.070,44.707 Z" class="cls-2"/>
    <path d="M14.000,56.220 L18.000,64.219 L48.000,64.219 L52.000,56.220 L35.000,47.219 L33.000,50.220 L31.000,47.219 L14.000,56.220 Z" class="cls-3"/>
    <path d="M40.000,58.220 L40.000,56.220 L42.000,56.220 L42.000,58.220 L40.000,58.220 ZM31.000,56.220 L33.000,56.220 L33.000,58.220 L31.000,58.220 L31.000,56.220 ZM22.000,56.220 L24.000,56.220 L24.000,58.220 L22.000,58.220 L22.000,56.220 Z" class="cls-2"/>
    <path d="M42.586,7.048 L41.172,5.634 L46.793,0.012 L48.207,1.427 L42.586,7.048 ZM31.000,0.220 L33.000,0.220 L33.000,6.220 L31.000,6.220 L31.000,0.220 ZM16.012,1.633 L17.413,0.231 L22.985,5.803 L21.583,7.205 L16.012,1.633 Z" class="cls-2"/>
    <path d="M21.000,16.219 L21.000,29.220 L33.000,35.219 L44.000,29.220 L44.000,16.219 L33.000,11.220 L21.000,16.219 Z" class="cls-3"/>
    <rect x="32" y="20.22" width="2" height="13" class="cls-4"/>
    <path d="M21.000,17.220 L21.000,15.219 L32.000,20.219 L32.000,22.219 L21.000,17.220 Z" class="cls-2"/>
    <path d="M43.000,17.220 L43.000,15.219 L32.000,20.219 L32.000,22.219 L43.000,17.220 Z" class="cls-2"/>
  </g>
</svg>
