<svg xmlns="http://www.w3.org/2000/svg" xmlns:xlink="http://www.w3.org/1999/xlink" preserveAspectRatio="xMidYMid" width="12" height="20" viewBox="0 0 24 40">
  <defs>
    <style>

      .cls-2 {
        fill: #ed2331;
      }
    </style>
  </defs>
  <path d="M23.696,36.940 C23.696,36.940 20.891,39.682 20.891,39.682 C20.483,40.080 19.833,40.090 19.438,39.704 C19.438,39.704 0.272,20.647 0.272,20.647 C-0.123,20.261 -0.113,19.625 0.295,19.226 C0.295,19.226 3.100,16.485 3.100,16.485 C3.262,16.326 3.466,16.247 3.674,16.212 C3.674,16.212 19.367,0.272 19.367,0.272 C19.758,-0.110 20.403,-0.100 20.806,0.294 C20.806,0.294 23.583,3.009 23.583,3.009 C23.987,3.403 23.997,4.033 23.606,4.415 C23.606,4.415 8.187,20.076 8.187,20.076 C8.187,20.076 23.720,35.520 23.720,35.520 C24.114,35.906 24.104,36.542 23.696,36.940 Z" id="path-1" class="cls-2" fill-rule="evenodd"/>
</svg>
