<svg xmlns="http://www.w3.org/2000/svg" xmlns:xlink="http://www.w3.org/1999/xlink" preserveAspectRatio="xMidYMid" width="67" height="58" viewBox="0 0 67 58">
  <defs>
    <style>
      .cls-1, .cls-3 {
        fill: #fff;
        stroke: #363636;
        stroke-linejoin: round;
        stroke-width: 2px;
      }

      .cls-2 {
        fill: #d84949;
      }

      .cls-3, .cls-4 {
        fill-rule: evenodd;
      }

      .cls-4 {
        fill: #dae135;
      }
    </style>
  </defs>
  <g>
    <rect x="1" y="51" width="65" height="6" class="cls-1"/>
    <rect x="51" y="29" width="6" height="6" class="cls-2"/>
    <rect x="33" y="1" width="30" height="52" class="cls-1"/>
    <path d="M4.000,15.000 L30.000,7.000 L30.000,52.999 L4.000,52.999 L4.000,15.000 Z" class="cls-3"/>
    <path d="M50.000,33.000 L50.000,27.000 L56.000,27.000 L56.000,33.000 L50.000,33.000 ZM50.000,17.000 L56.000,17.000 L56.000,23.000 L50.000,23.000 L50.000,17.000 ZM50.000,8.000 L56.000,8.000 L56.000,14.000 L50.000,14.000 L50.000,8.000 ZM38.000,27.000 L44.000,27.000 L44.000,33.000 L38.000,33.000 L38.000,27.000 ZM38.000,17.000 L44.000,17.000 L44.000,23.000 L38.000,23.000 L38.000,17.000 ZM38.000,8.000 L44.000,8.000 L44.000,14.000 L38.000,14.000 L38.000,8.000 ZM18.000,29.000 L24.000,29.000 L24.000,35.000 L18.000,35.000 L18.000,29.000 ZM18.000,19.000 L24.000,19.000 L24.000,25.000 L18.000,25.000 L18.000,19.000 ZM8.000,29.000 L14.000,29.000 L14.000,35.000 L8.000,35.000 L8.000,29.000 ZM8.000,19.000 L14.000,19.000 L14.000,25.000 L8.000,25.000 L8.000,19.000 ZM21.000,50.000 L11.000,50.000 L11.000,39.000 L21.000,39.000 L21.000,50.000 ZM52.000,50.000 L41.000,50.000 L41.000,38.000 L52.000,38.000 L52.000,50.000 Z" class="cls-4"/>
  </g>
</svg>
