<svg xmlns="http://www.w3.org/2000/svg" xmlns:xlink="http://www.w3.org/1999/xlink" preserveAspectRatio="xMidYMid" width="62" height="60" viewBox="0 0 62 60">
  <defs>
    <style>
      .cls-1, .cls-3 {
        fill: #fff;
      }

      .cls-1, .cls-3, .cls-6 {
        stroke: #363636;
        stroke-linejoin: round;
      }

      .cls-1, .cls-6 {
        stroke-width: 2px;
      }

      .cls-2 {
        fill: #dae135;
      }

      .cls-3 {
        stroke-width: 1px;
      }

      .cls-4, .cls-5 {
        fill: #363636;
      }

      .cls-5 {
        fill-rule: evenodd;
      }

      .cls-6 {
        fill: #f5f5f9;
      }

      .cls-7, .cls-8 {
        font-size: 24px;
      }

      .cls-8 {
        fill: #404041;
        text-anchor: middle;
        font-family: "Roboto Condensed";
      }
    </style>
  </defs>
  <g>
    <circle cx="33" cy="31" r="28" class="cls-1"/>
    <circle cx="33" cy="31" r="4" class="cls-1"/>
    <circle cx="33" cy="31" r="23" class="cls-2"/>
    <circle cx="33.5" cy="30.5" r="4.5" class="cls-3"/>
    <rect x="33" y="35" width="1" height="13" class="cls-4"/>
    <rect x="37" y="30" width="7" height="1" class="cls-4"/>
    <path d="M51.000,30.000 L51.000,29.000 L52.000,29.000 L52.000,30.000 L51.000,30.000 ZM49.000,40.000 L50.000,40.000 L50.000,41.000 L49.000,41.000 L49.000,40.000 ZM49.000,19.000 L50.000,19.000 L50.000,20.000 L49.000,20.000 L49.000,19.000 ZM42.000,47.000 L43.000,47.000 L43.000,48.000 L42.000,48.000 L42.000,47.000 ZM42.000,12.000 L43.000,12.000 L43.000,13.000 L42.000,13.000 L42.000,12.000 ZM32.000,49.000 L33.000,49.000 L33.000,50.000 L32.000,50.000 L32.000,49.000 ZM32.000,9.000 L33.000,9.000 L33.000,10.000 L32.000,10.000 L32.000,9.000 ZM22.000,47.000 L23.000,47.000 L23.000,48.000 L22.000,48.000 L22.000,47.000 ZM21.000,12.000 L22.000,12.000 L22.000,13.000 L21.000,13.000 L21.000,12.000 ZM15.000,40.000 L16.000,40.000 L16.000,41.000 L15.000,41.000 L15.000,40.000 ZM15.000,19.000 L16.000,19.000 L16.000,20.000 L15.000,20.000 L15.000,19.000 ZM12.000,29.000 L13.000,29.000 L13.000,30.000 L12.000,30.000 L12.000,29.000 Z" class="cls-5"/>
    <circle cx="12" cy="12" r="11" class="cls-6"/>
    <text transform="translate(12 17) scale(0.58)" class="cls-7"><tspan class="cls-8">₽</tspan></text>
  </g>
</svg>
