<svg xmlns="http://www.w3.org/2000/svg" xmlns:xlink="http://www.w3.org/1999/xlink" preserveAspectRatio="xMidYMid" width="48" height="65" viewBox="0 0 48 65">
  <defs>
    <style>
      .cls-1, .cls-3 {
        fill: #fff;
        stroke: #363636;
        stroke-linejoin: round;
        stroke-width: 2px;
      }

      .cls-1, .cls-2, .cls-4 {
        fill-rule: evenodd;
      }

      .cls-2 {
        fill: #dae135;
      }

      .cls-4 {
        fill: #363636;
      }
    </style>
  </defs>
  <g>
    <path d="M24.000,1.000 C36.702,1.000 47.000,11.297 47.000,24.000 C47.000,36.702 24.202,63.999 24.000,63.999 C23.797,63.999 1.000,36.702 1.000,24.000 C1.000,11.297 11.297,1.000 24.000,1.000 Z" class="cls-1"/>
    <path d="M23.000,3.999 C32.941,3.999 41.000,12.058 41.000,22.000 C41.000,31.941 23.066,54.999 23.000,54.999 C22.809,54.999 5.000,31.941 5.000,22.000 C5.000,12.058 13.059,3.999 23.000,3.999 Z" class="cls-2"/>
    <circle cx="24" cy="23" r="9" class="cls-3"/>
    <path d="M26.000,42.000 L26.000,40.000 L28.000,40.000 L28.000,42.000 L26.000,42.000 ZM22.000,40.000 L24.000,40.000 L24.000,42.000 L22.000,42.000 L22.000,40.000 ZM18.000,40.000 L20.000,40.000 L20.000,42.000 L18.000,42.000 L18.000,40.000 Z" class="cls-4"/>
  </g>
</svg>
