<svg xmlns="http://www.w3.org/2000/svg" xmlns:xlink="http://www.w3.org/1999/xlink" preserveAspectRatio="xMidYMid" width="203.531" height="58.813" viewBox="0 0 203.531 58.813">
  <defs>
    <style>
      .cls-1 {
        fill: #404041;
        fill-rule: evenodd;
      }

      .cls-2 {
        fill: #dae135;
      }

      .cls-3 {
        fill: #09894c;
      }

      .cls-4 {
        fill: #f06939;
      }

      .cls-5 {
        fill: #ba5490;
      }
    </style>
  </defs>
  <g>
    <path d="M194.070,4.863 C192.550,4.863 191.536,4.996 191.030,5.262 C190.523,5.528 190.270,6.193 190.270,7.257 C190.270,8.119 190.460,8.739 190.840,9.119 C191.220,9.499 191.942,9.867 193.006,10.221 L197.984,11.931 C200.010,12.641 201.442,13.610 202.278,14.838 C203.114,16.067 203.532,17.669 203.532,19.645 C203.532,22.584 202.822,24.579 201.404,25.630 C199.985,26.682 197.452,27.207 193.804,27.207 C190.840,27.207 187.838,26.878 184.798,26.219 L185.140,22.039 C190.536,22.166 193.424,22.229 193.804,22.229 C195.349,22.229 196.381,22.065 196.901,21.735 C197.420,21.406 197.680,20.722 197.680,19.683 C197.680,18.797 197.502,18.170 197.148,17.802 C196.793,17.435 196.147,17.099 195.210,16.795 L189.928,14.933 C187.977,14.224 186.584,13.261 185.748,12.045 C184.912,10.829 184.494,9.233 184.494,7.257 C184.494,4.369 185.197,2.437 186.603,1.462 C188.009,0.487 190.485,-0.001 194.032,-0.001 C197.376,-0.001 200.251,0.341 202.658,1.025 L202.278,4.977 C200.074,4.901 197.338,4.863 194.070,4.863 ZM169.066,27.207 C165.114,27.207 162.333,26.384 160.725,24.737 C159.116,23.091 158.312,20.266 158.312,16.263 L158.312,0.493 L164.088,0.493 L164.088,16.263 C164.088,18.670 164.423,20.317 165.095,21.203 C165.766,22.090 167.001,22.533 168.800,22.533 C170.573,22.533 171.795,22.090 172.467,21.203 C173.138,20.317 173.474,18.670 173.474,16.263 L173.474,0.493 L179.288,0.493 L179.288,16.263 C179.288,20.266 178.521,23.091 176.989,24.737 C175.456,26.384 172.815,27.207 169.066,27.207 ZM141.706,27.207 C137.501,27.207 134.581,26.238 132.947,24.300 C131.313,22.362 130.496,18.797 130.496,13.603 C130.496,8.410 131.313,4.844 132.947,2.906 C134.581,0.968 137.501,-0.001 141.706,-0.001 C145.911,-0.001 148.837,0.968 150.484,2.906 C152.131,4.844 152.954,8.410 152.954,13.603 C152.954,18.797 152.131,22.362 150.484,24.300 C148.837,26.238 145.911,27.207 141.706,27.207 ZM145.753,6.535 C145.031,5.294 143.682,4.673 141.706,4.673 C139.730,4.673 138.381,5.294 137.659,6.535 C136.937,7.777 136.576,10.133 136.576,13.603 C136.576,17.074 136.937,19.430 137.659,20.671 C138.381,21.913 139.730,22.533 141.706,22.533 C143.682,22.533 145.031,21.913 145.753,20.671 C146.475,19.430 146.836,17.074 146.836,13.603 C146.836,10.133 146.475,7.777 145.753,6.535 ZM119.135,0.493 L124.911,0.493 L124.911,26.713 L119.135,26.713 L119.135,0.493 ZM106.823,26.713 L101.009,26.713 L101.009,5.205 L93.181,5.205 L93.181,0.493 L114.651,0.493 L114.651,5.205 L106.823,5.205 L106.823,26.713 ZM82.921,0.493 L88.697,0.493 L88.697,26.713 L82.921,26.713 L82.921,0.493 ZM70.609,26.713 L64.795,26.713 L64.795,5.205 L56.967,5.205 L56.967,0.493 L78.437,0.493 L78.437,5.205 L70.609,5.205 L70.609,26.713 ZM45.681,27.169 C41.628,27.169 38.778,26.156 37.131,24.129 C35.484,22.102 34.661,18.594 34.661,13.603 C34.661,8.612 35.484,5.104 37.131,3.077 C38.778,1.051 41.628,0.037 45.681,0.037 C48.620,0.037 51.242,0.328 53.547,0.911 L53.053,5.243 C51.001,5.117 48.544,5.053 45.681,5.053 C43.781,5.053 42.483,5.655 41.786,6.858 C41.089,8.062 40.741,10.310 40.741,13.603 C40.741,16.896 41.089,19.145 41.786,20.348 C42.483,21.552 43.781,22.153 45.681,22.153 C49.202,22.153 51.837,22.039 53.585,21.811 L54.079,26.105 C51.799,26.814 49.000,27.169 45.681,27.169 ZM23.299,0.493 L29.075,0.493 L29.075,26.713 L23.299,26.713 L23.299,0.493 ZM8.898,5.053 C8.163,5.053 7.637,5.205 7.321,5.509 C7.004,5.813 6.846,6.307 6.846,6.991 L6.846,11.475 L16.878,11.475 L16.878,15.693 L6.846,15.693 L6.846,26.713 L1.032,26.713 L1.032,5.813 C1.032,4.141 1.557,2.818 2.609,1.842 C3.660,0.867 5.060,0.379 6.808,0.379 C12.381,0.379 16.308,0.519 18.588,0.797 L18.284,5.053 L8.898,5.053 Z" class="cls-1"/>
    <rect y="38.188" width="40" height="3" class="cls-2"/>
    <rect x="55" y="38.188" width="40" height="3" class="cls-3"/>
    <rect x="110" y="38.188" width="40" height="3" class="cls-4"/>
    <rect x="163" y="38.188" width="40" height="3" class="cls-5"/>
    <path d="M202.107,58.713 L202.107,54.813 L198.495,54.813 L198.495,58.713 L197.295,58.713 L197.295,50.433 L198.495,50.433 L198.495,53.781 L202.107,53.781 L202.107,50.433 L203.319,50.433 L203.319,58.713 L202.107,58.713 ZM188.355,52.869 C188.355,52.469 188.379,52.141 188.427,51.885 L188.355,51.885 C188.243,52.181 188.099,52.493 187.923,52.821 L184.443,58.713 L183.207,58.713 L183.207,50.433 L184.359,50.433 L184.359,56.217 C184.359,56.553 184.335,56.893 184.287,57.237 L184.347,57.237 C184.483,56.909 184.639,56.597 184.815,56.301 L188.271,50.433 L189.519,50.433 L189.519,58.713 L188.355,58.713 L188.355,52.869 ZM175.383,55.071 C175.631,55.435 175.755,55.961 175.755,56.649 C175.755,57.481 175.559,58.049 175.167,58.353 C174.775,58.657 174.099,58.809 173.139,58.809 C172.003,58.809 171.039,58.713 170.247,58.521 L170.355,57.657 C171.251,57.769 172.111,57.825 172.935,57.825 C173.543,57.825 173.961,57.733 174.189,57.549 C174.417,57.365 174.531,56.997 174.531,56.445 C174.531,55.845 174.409,55.437 174.165,55.221 C173.921,55.005 173.483,54.897 172.851,54.897 L171.435,54.897 L171.435,53.949 L172.851,53.949 C173.403,53.949 173.785,53.859 173.997,53.679 C174.209,53.499 174.315,53.153 174.315,52.641 C174.315,52.113 174.201,51.759 173.973,51.579 C173.745,51.399 173.323,51.309 172.707,51.309 C172.171,51.309 171.451,51.357 170.547,51.453 L170.451,50.529 C171.163,50.401 171.939,50.337 172.779,50.337 C173.811,50.337 174.525,50.487 174.921,50.787 C175.317,51.087 175.515,51.657 175.515,52.497 C175.515,53.097 175.405,53.551 175.185,53.859 C174.965,54.167 174.611,54.345 174.123,54.393 L174.123,54.441 C174.715,54.497 175.135,54.707 175.383,55.071 ZM161.955,56.217 L158.655,56.217 L157.887,58.713 L156.663,58.713 L159.255,50.757 C159.319,50.541 159.467,50.433 159.699,50.433 L160.923,50.433 C161.163,50.433 161.307,50.541 161.355,50.757 L163.959,58.713 L162.723,58.713 L161.955,56.217 ZM160.671,52.029 C160.647,51.957 160.613,51.845 160.569,51.693 C160.525,51.541 160.491,51.429 160.467,51.357 L160.143,51.357 L159.951,52.029 L158.979,55.173 L161.643,55.173 L160.671,52.029 ZM148.479,51.441 C148.199,51.441 148.001,51.501 147.885,51.621 C147.769,51.741 147.711,51.957 147.711,52.269 L147.711,58.713 L146.511,58.713 L146.511,52.041 C146.511,51.561 146.657,51.169 146.949,50.865 C147.241,50.561 147.615,50.409 148.071,50.409 C149.655,50.409 150.803,50.445 151.515,50.517 L151.467,51.441 L148.479,51.441 ZM137.655,56.217 L134.355,56.217 L133.587,58.713 L132.363,58.713 L134.955,50.757 C135.019,50.541 135.167,50.433 135.399,50.433 L136.623,50.433 C136.863,50.433 137.007,50.541 137.055,50.757 L139.659,58.713 L138.423,58.713 L137.655,56.217 ZM136.371,52.029 C136.347,51.957 136.313,51.845 136.269,51.693 C136.225,51.541 136.191,51.429 136.167,51.357 L135.843,51.357 L135.651,52.029 L134.679,55.173 L137.343,55.173 L136.371,52.029 ZM124.167,51.429 L123.927,51.429 L122.247,57.321 C122.175,57.593 122.003,57.729 121.731,57.729 L120.687,57.729 C120.407,57.729 120.231,57.593 120.159,57.321 L118.467,51.429 L118.239,51.429 L117.963,58.713 L116.775,58.713 L117.087,50.925 C117.103,50.597 117.267,50.433 117.579,50.433 L118.911,50.433 C119.159,50.433 119.327,50.569 119.415,50.841 L120.819,55.689 C120.899,55.977 120.991,56.349 121.095,56.805 L121.311,56.805 C121.407,56.381 121.503,56.005 121.599,55.677 L122.991,50.841 C123.079,50.569 123.255,50.433 123.519,50.433 L124.827,50.433 C125.139,50.433 125.303,50.597 125.319,50.925 L125.655,58.713 L124.455,58.713 L124.167,51.429 ZM105.687,55.233 L109.335,55.233 L109.335,56.121 L105.687,56.121 L105.687,55.233 ZM96.855,58.713 L95.643,58.713 L95.643,51.501 L93.039,51.501 L93.039,50.433 L99.483,50.433 L99.483,51.501 L96.855,51.501 L96.855,58.713 ZM82.546,57.543 C82.645,57.659 82.816,57.717 83.056,57.717 L86.356,57.717 L86.404,58.641 C85.676,58.705 84.491,58.737 82.852,58.737 C82.339,58.737 81.935,58.603 81.640,58.335 C81.343,58.067 81.196,57.705 81.196,57.249 L81.196,51.897 C81.196,51.441 81.343,51.079 81.640,50.811 C81.935,50.543 82.339,50.409 82.852,50.409 C84.491,50.409 85.676,50.441 86.404,50.505 L86.356,51.441 L83.056,51.441 C82.816,51.441 82.645,51.499 82.546,51.615 C82.445,51.731 82.396,51.929 82.396,52.209 L82.396,53.865 L85.888,53.865 L85.888,54.837 L82.396,54.837 L82.396,56.949 C82.396,57.229 82.445,57.427 82.546,57.543 ZM72.280,54.813 L68.668,54.813 L68.668,58.713 L67.468,58.713 L67.468,50.433 L68.668,50.433 L68.668,53.781 L72.280,53.781 L72.280,50.433 L73.492,50.433 L73.492,58.713 L72.280,58.713 L72.280,54.813 ZM57.628,55.569 C57.028,55.569 56.423,55.533 55.816,55.461 L55.816,58.713 L54.604,58.713 L54.604,50.433 C55.284,50.361 56.248,50.325 57.496,50.325 C58.520,50.325 59.226,50.509 59.614,50.877 C60.002,51.245 60.196,51.933 60.196,52.941 C60.196,53.957 60.010,54.649 59.638,55.017 C59.266,55.385 58.596,55.569 57.628,55.569 ZM58.660,51.681 C58.444,51.465 58.044,51.357 57.460,51.357 C56.660,51.357 56.112,51.361 55.816,51.369 L55.816,54.537 L57.460,54.537 C58.044,54.529 58.444,54.417 58.660,54.201 C58.876,53.985 58.984,53.565 58.984,52.941 C58.984,52.317 58.876,51.897 58.660,51.681 ZM43.390,57.543 C43.490,57.659 43.660,57.717 43.900,57.717 L47.200,57.717 L47.248,58.641 C46.520,58.705 45.336,58.737 43.696,58.737 C43.184,58.737 42.780,58.603 42.484,58.335 C42.188,58.067 42.040,57.705 42.040,57.249 L42.040,51.897 C42.040,51.441 42.188,51.079 42.484,50.811 C42.780,50.543 43.184,50.409 43.696,50.409 C45.336,50.409 46.520,50.441 47.248,50.505 L47.200,51.441 L43.900,51.441 C43.660,51.441 43.490,51.499 43.390,51.615 C43.290,51.731 43.240,51.929 43.240,52.209 L43.240,53.865 L46.732,53.865 L46.732,54.837 L43.240,54.837 L43.240,56.949 C43.240,57.229 43.290,57.427 43.390,57.543 ZM32.440,58.713 L31.228,58.713 L31.228,51.501 L28.624,51.501 L28.624,50.433 L35.068,50.433 L35.068,51.501 L32.440,51.501 L32.440,58.713 ZM20.356,54.813 L16.744,54.813 L16.744,58.713 L15.544,58.713 L15.544,50.433 L16.744,50.433 L16.744,53.781 L20.356,53.781 L20.356,50.433 L21.568,50.433 L21.568,58.713 L20.356,58.713 L20.356,54.813 ZM6.604,52.869 C6.604,52.469 6.628,52.141 6.676,51.885 L6.604,51.885 C6.492,52.181 6.348,52.493 6.172,52.821 L2.692,58.713 L1.456,58.713 L1.456,50.433 L2.608,50.433 L2.608,56.217 C2.608,56.553 2.584,56.893 2.536,57.237 L2.596,57.237 C2.732,56.909 2.888,56.597 3.064,56.301 L6.520,50.433 L7.768,50.433 L7.768,58.713 L6.604,58.713 L6.604,52.869 Z" class="cls-1"/>
  </g>
</svg>
