<?xml version="1.0" encoding="UTF-8"?><!DOCTYPE svg PUBLIC "-//W3C//DTD SVG 1.1//EN" "http://www.w3.org/Graphics/SVG/1.1/DTD/svg11.dtd"><svg xmlns="http://www.w3.org/2000/svg"><defs><style>.cls-2{fill:#ed2331}</style><style>.cls-1,.cls-3{fill:#fff;stroke:#363636;stroke-linejoin:round;stroke-width:2px}.cls-2{fill:#d84949}.cls-3,.cls-4{fill-rule:evenodd}.cls-4{fill:#dae135}</style><style>.cls-1,.cls-3{fill:#fff}.cls-1,.cls-3,.cls-6{stroke:#363636;stroke-linejoin:round}.cls-1,.cls-6{stroke-width:2px}.cls-2{fill:#dae135}.cls-3{stroke-width:1px}.cls-4,.cls-5{fill:#363636}.cls-5{fill-rule:evenodd}.cls-6{fill:#f5f5f9}.cls-7,.cls-8{font-size:24px}.cls-8{fill:#404041;text-anchor:middle;font-family:"Roboto Condensed"}</style><style>.cls-1{fill:#404041}.cls-2{fill:#dae135}.cls-2,.cls-3,.cls-4{stroke:#404041;stroke-linejoin:round}.cls-2,.cls-4{stroke-width:2px}.cls-3,.cls-4{fill:#fff}.cls-3{stroke-width:1px}</style><style>.cls-1,.cls-3{fill:#fff;stroke:#363636;stroke-linejoin:round;stroke-width:2px}.cls-1,.cls-2,.cls-4{fill-rule:evenodd}.cls-2{fill:#dae135}.cls-4{fill:#363636}</style><style>.cls-1{fill:#fff;stroke:#363636;stroke-linejoin:round;stroke-width:2px}.cls-2{fill:#dae135}.cls-3,.cls-4{font-size:24px}.cls-4{fill:#404041;text-anchor:middle;font-family:"Roboto Condensed"}.cls-5{fill:#dededf;fill-rule:evenodd}</style><style>.cls-1,.cls-5{fill:#f06939}.cls-1,.cls-2{stroke:#363636;stroke-linejoin:round;stroke-width:2px}.cls-1,.cls-2,.cls-3,.cls-5{fill-rule:evenodd}.cls-2{fill:#fff}.cls-3{fill:#363636}.cls-4{fill:#dae135}</style><style>.cls-1{fill:#fff}.cls-1,.cls-4{stroke:#363636;stroke-linejoin:round;stroke-width:2px}.cls-1,.cls-3{fill-rule:evenodd}.cls-2,.cls-4{fill:#dae135}.cls-3{fill:#363636}</style><style>.cls-1{fill:#fff}.cls-1,.cls-3{stroke:#363636;stroke-linejoin:round;stroke-width:2px}.cls-1,.cls-2,.cls-3{fill-rule:evenodd}.cls-2,.cls-4{fill:#363636}.cls-3{fill:#dae135}</style><style>.cls-1{fill:#404041;fill-rule:evenodd}.cls-2{fill:#dae135}.cls-3{fill:#09894c}.cls-4{fill:#f06939}.cls-5{fill:#ba5490}</style><style>.cls-1,.cls-3{fill:#fff;stroke:#363636;stroke-linejoin:round;stroke-width:2px}.cls-2{fill:#dae135}.cls-3,.cls-4{fill-rule:evenodd}.cls-4{fill:#363636}.cls-5,.cls-6{font-size:24px}.cls-6{fill:#404041;text-anchor:middle;font-family:"Roboto Condensed"}</style><style>.cls-1,.cls-3{fill:#fff;stroke:#363636;stroke-linejoin:round;stroke-width:2px}.cls-1,.cls-4{fill-rule:evenodd}.cls-2{fill:#dae135}.cls-4{fill:#363636}</style><style>.cls-1{stroke:#404041;stroke-width:2px;fill:none;fill-rule:evenodd}</style><style>.cls-1,.cls-4{fill:#fff}.cls-1,.cls-2,.cls-3,.cls-4{stroke:#404041;stroke-linejoin:round}.cls-1,.cls-2{stroke-width:2px}.cls-2,.cls-3{fill:#dae135}.cls-3,.cls-4{stroke-width:1px}.cls-5,.cls-6{fill:#404041}.cls-5{fill-rule:evenodd}</style></defs><symbol id="back-icon" viewBox="0 0 24 40" preserveAspectRatio="xMidYMid"><path d="M23.696 36.94l-2.805 2.742c-.408.398-1.058.408-1.453.022L.272 20.647c-.395-.386-.385-1.022.023-1.421L3.1 16.485c.162-.159.366-.238.574-.273L19.367.272c.391-.382 1.036-.372 1.439.022l2.777 2.715c.404.394.414 1.024.023 1.406L8.187 20.076 23.72 35.52c.394.386.384 1.022-.024 1.42z" id="path-1" class="cls-2" fill-rule="evenodd"/></symbol><symbol id="city" viewBox="0 0 67 58" preserveAspectRatio="xMidYMid"><path class="cls-1" d="M1 51h65v6H1z"/><path class="cls-2" d="M51 29h6v6h-6z"/><path class="cls-1" d="M33 1h30v52H33z"/><path d="M4 15l26-8v45.999H4V15z" class="cls-3"/><path d="M50 33v-6h6v6h-6zm0-16h6v6h-6v-6zm0-9h6v6h-6V8zM38 27h6v6h-6v-6zm0-10h6v6h-6v-6zm0-9h6v6h-6V8zM18 29h6v6h-6v-6zm0-10h6v6h-6v-6zM8 29h6v6H8v-6zm0-10h6v6H8v-6zm13 31H11V39h10v11zm31 0H41V38h11v12z" class="cls-4"/></symbol><symbol id="credit" viewBox="0 0 62 60" preserveAspectRatio="xMidYMid"><circle cx="33" cy="31" r="28" class="cls-1"/><circle cx="33" cy="31" r="4" class="cls-1"/><circle cx="33" cy="31" r="23" class="cls-2"/><circle cx="33.5" cy="30.5" r="4.5" class="cls-3"/><path class="cls-4" d="M33 35h1v13h-1zM37 30h7v1h-7z"/><path d="M51 30v-1h1v1h-1zm-2 10h1v1h-1v-1zm0-21h1v1h-1v-1zm-7 28h1v1h-1v-1zm0-35h1v1h-1v-1zM32 49h1v1h-1v-1zm0-40h1v1h-1V9zM22 47h1v1h-1v-1zm-1-35h1v1h-1v-1zm-6 28h1v1h-1v-1zm0-21h1v1h-1v-1zm-3 10h1v1h-1v-1z" class="cls-5"/><circle cx="12" cy="12" r="11" class="cls-6"/><text transform="matrix(.58 0 0 .58 12 17)" class="cls-7"><tspan class="cls-8">&#x20BD;</tspan></text></symbol><symbol id="curbstone" viewBox="0 0 46 65" preserveAspectRatio="xMidYMid"><path class="cls-1" d="M5 59h5v6H5zM36 59h5v6h-5z"/><path class="cls-2" d="M2 16h42v44H2z"/><path class="cls-1" d="M4 37h38v2H4z"/><path class="cls-3" d="M6 20h34v15H6z"/><path class="cls-1" d="M20 27h6v2h-6z"/><path class="cls-3" d="M6 41h34v15H6z"/><path class="cls-1" d="M20 48h6v2h-6z"/><path class="cls-4" d="M1 12h44v6H1z"/><path class="cls-2" d="M7 4h6v10H7zM18 1h20v13H18z"/><path class="cls-4" d="M18 1h20v6H18z"/></symbol><symbol id="delivery" viewBox="0 0 48 65" preserveAspectRatio="xMidYMid"><path d="M24 1c12.702 0 23 10.297 23 23 0 12.702-22.798 39.999-23 39.999-.203 0-23-27.297-23-39.999C1 11.297 11.297 1 24 1z" class="cls-1"/><path d="M23 3.999c9.941 0 18 8.059 18 18.001 0 9.941-17.934 32.999-18 32.999-.191 0-18-23.058-18-32.999 0-9.942 8.059-18.001 18-18.001z" class="cls-2"/><circle cx="24" cy="23" r="9" class="cls-3"/><path d="M26 42v-2h2v2h-2zm-4-2h2v2h-2v-2zm-4 0h2v2h-2v-2z" class="cls-4"/></symbol><symbol id="economy" viewBox="0 0 66 66" preserveAspectRatio="xMidYMid"><circle cx="27" cy="27" r="26" class="cls-1"/><circle cx="27" cy="27" r="19" class="cls-2"/><text x="27" y="35" class="cls-3"><tspan class="cls-4">&#x20BD;</tspan></text><path class="cls-1" d="M37 24h28v41H37z"/><path class="cls-2" d="M42 29h18v10H42z"/><path d="M52 59v-7h7v7h-7zm0-18h7v7h-7v-7zM41 52h7v7h-7v-7zm0-11h7v7h-7v-7z" class="cls-5"/></symbol><symbol id="free_delivery" viewBox="0 0 65 66.75" preserveAspectRatio="xMidYMid"><path d="M15 35L7 59l24-8.001L15 35z" class="cls-1"/><path d="M16 28s-10.125-.25-15 3.999C3.688 27.687 10.312 15.875 27 16c-1.625 1.875-11 12-11 12zM37.084 50.923s-.128 10.127-4.557 14.84c4.41-2.525 16.461-8.704 16.959-25.385-1.935 1.554-12.402 10.545-12.402 10.545z" class="cls-2"/><path d="M11 34l20 20.999S64 41.333 64 1C60.333 1 28.5.666 11 34z" class="cls-2"/><path d="M28 42.414L26.586 41 28 39.585 29.414 41 28 42.414zM23.586 38L25 36.586 26.414 38 25 39.414 23.586 38zm-3-3.001L22 33.585l1.414 1.414L22 36.414l-1.414-1.415z" class="cls-3"/><circle cx="45" cy="21" r="6" class="cls-4"/><path d="M46 4l13 13s2-7.021 2-15c-8.063 0-15 2-15 2z" class="cls-5"/></symbol><symbol id="garant" viewBox="0 0 65 66" preserveAspectRatio="xMidYMid"><path d="M1 15v50h44V1H15L1 15z" class="cls-1"/><path d="M16 1v14.999H1L16 1z" class="cls-1"/><path class="cls-2" d="M10 23h27v12H10z"/><path d="M33 10V8h2v2h-2zm-5-2h2v2h-2V8zm-5 0h2v2h-2V8zM8 55v-2h28v2H8zm0-8h28v2H8v-2zm0-6h28v2H8v-2zm6-14h16v2H14v-2z" class="cls-3"/><path class="cls-4" d="M52 1h12v30H52z"/><path d="M51 5.999v2h-2V30h-2V5.999h4z" class="cls-3"/><path d="M53 29v27h10V29H53z" class="cls-1"/><path d="M53 53.999L58 65l5-11.001H53z" class="cls-1"/></symbol><symbol id="loader" viewBox="0 0 66.66 64.22" preserveAspectRatio="xMidYMid"><path d="M31.037 53.811l6.96-9.818 4.276-3.552 5.41-10.711s1.748-3.598 5.374-1.767c3.626 1.832 1.767 5.374 1.767 5.374l1.804-3.57s.328-8.412.948-12.965c.619-4.554 2.705-5.356 2.705-5.356s3.066-1.217 4.454 4.491.8 22.811.8 22.811.079 4.417-3.607 7.141c-3.687 2.724-10.987 10.59-11.678 12.026-.69 1.437-2.254 4.463-2.254 4.463l-16.959-8.567z" class="cls-1"/><path d="M49.747 44.842l.902-1.784s-1.771-.931-.883-2.688l4.058-8.033-1.785-.902-4.058 8.034s-1.72 3.612 1.766 5.373z" class="cls-2"/><path d="M35.994 53.665l-7.035-9.806-4.322-3.547-5.47-10.698s-1.766-3.594-5.432-1.765c-3.665 1.83-1.786 5.368-1.786 5.368l-1.823-3.566s-.331-8.402-.958-12.95c-.626-4.548-2.735-5.349-2.735-5.349s-3.099-1.215-4.502 4.486c-1.403 5.7-.808 22.783-.808 22.783s-.081 4.411 3.646 7.132c3.727 2.72 11.106 10.577 11.804 12.012.698 1.434 2.279 4.457 2.279 4.457l17.142-8.557z" class="cls-1"/><path d="M15.07 44.707l-.911-1.783s1.79-.929.893-2.684l-4.103-8.023 1.805-.901 4.102 8.023s1.739 3.608-1.786 5.368z" class="cls-2"/><path d="M14 56.22l4 7.999h30l4-7.999-17-9.001-2 3.001-2-3.001-17 9.001z" class="cls-3"/><path d="M40 58.22v-2h2v2h-2zm-9-2h2v2h-2v-2zm-9 0h2v2h-2v-2zM42.586 7.048l-1.414-1.414L46.793.012l1.414 1.415-5.621 5.621zM31 .22h2v6h-2v-6zM16.012 1.633L17.413.231l5.572 5.572-1.402 1.402-5.571-5.572z" class="cls-2"/><path d="M21 16.219V29.22l12 5.999 11-5.999V16.219L33 11.22l-12 4.999z" class="cls-3"/><path class="cls-4" d="M32 20.22h2v13h-2z"/><path d="M21 17.22v-2.001l11 5v2L21 17.22zM43 17.22v-2.001l-11 5v2l11-4.999z" class="cls-2"/></symbol><symbol id="logo" viewBox="0 0 203.531 58.813" preserveAspectRatio="xMidYMid"><path d="M194.07 4.863c-1.52 0-2.534.133-3.04.399-.507.266-.76.931-.76 1.995 0 .862.19 1.482.57 1.862.38.38 1.102.748 2.166 1.102l4.978 1.71c2.026.71 3.458 1.679 4.294 2.907.836 1.229 1.254 2.831 1.254 4.807 0 2.939-.71 4.934-2.128 5.985-1.419 1.052-3.952 1.577-7.6 1.577-2.964 0-5.966-.329-9.006-.988l.342-4.18c5.396.127 8.284.19 8.664.19 1.545 0 2.577-.164 3.097-.494.519-.329.779-1.013.779-2.052 0-.886-.178-1.513-.532-1.881-.355-.367-1.001-.703-1.938-1.007l-5.282-1.862c-1.951-.709-3.344-1.672-4.18-2.888-.836-1.216-1.254-2.812-1.254-4.788 0-2.888.703-4.82 2.109-5.795 1.406-.975 3.882-1.463 7.429-1.463 3.344 0 6.219.342 8.626 1.026l-.38 3.952c-2.204-.076-4.94-.114-8.208-.114zm-25.004 22.344c-3.952 0-6.733-.823-8.341-2.47-1.609-1.646-2.413-4.471-2.413-8.474V.493h5.776v15.77c0 2.407.335 4.054 1.007 4.94.671.887 1.906 1.33 3.705 1.33 1.773 0 2.995-.443 3.667-1.33.671-.886 1.007-2.533 1.007-4.94V.493h5.814v15.77c0 4.003-.767 6.828-2.299 8.474-1.533 1.647-4.174 2.47-7.923 2.47zm-27.36 0c-4.205 0-7.125-.969-8.759-2.907-1.634-1.938-2.451-5.503-2.451-10.697 0-5.193.817-8.759 2.451-10.697 1.634-1.938 4.554-2.907 8.759-2.907s7.131.969 8.778 2.907c1.647 1.938 2.47 5.504 2.47 10.697 0 5.194-.823 8.759-2.47 10.697-1.647 1.938-4.573 2.907-8.778 2.907zm4.047-20.672c-.722-1.241-2.071-1.862-4.047-1.862-1.976 0-3.325.621-4.047 1.862-.722 1.242-1.083 3.598-1.083 7.068 0 3.471.361 5.827 1.083 7.068.722 1.242 2.071 1.862 4.047 1.862 1.976 0 3.325-.62 4.047-1.862.722-1.241 1.083-3.597 1.083-7.068 0-3.47-.361-5.826-1.083-7.068zM119.135.493h5.776v26.22h-5.776V.493zm-12.312 26.22h-5.814V5.205h-7.828V.493h21.47v4.712h-7.828v21.508zM82.921.493h5.776v26.22h-5.776V.493zm-12.312 26.22h-5.814V5.205h-7.828V.493h21.47v4.712h-7.828v21.508zm-24.928.456c-4.053 0-6.903-1.013-8.55-3.04-1.647-2.027-2.47-5.535-2.47-10.526s.823-8.499 2.47-10.526c1.647-2.026 4.497-3.04 8.55-3.04 2.939 0 5.561.291 7.866.874l-.494 4.332c-2.052-.126-4.509-.19-7.372-.19-1.9 0-3.198.602-3.895 1.805-.697 1.204-1.045 3.452-1.045 6.745s.348 5.542 1.045 6.745c.697 1.204 1.995 1.805 3.895 1.805 3.521 0 6.156-.114 7.904-.342l.494 4.294c-2.28.709-5.079 1.064-8.398 1.064zM23.299.493h5.776v26.22h-5.776V.493zM8.898 5.053c-.735 0-1.261.152-1.577.456-.317.304-.475.798-.475 1.482v4.484h10.032v4.218H6.846v11.02H1.032v-20.9c0-1.672.525-2.995 1.577-3.971C3.66.867 5.06.379 6.808.379c5.573 0 9.5.14 11.78.418l-.304 4.256H8.898z" class="cls-1"/><path class="cls-2" d="M0 38.188h40v3H0z"/><path class="cls-3" d="M55 38.188h40v3H55z"/><path class="cls-4" d="M110 38.188h40v3h-40z"/><path class="cls-5" d="M163 38.188h40v3h-40z"/><path d="M202.107 58.713v-3.9h-3.612v3.9h-1.2v-8.28h1.2v3.348h3.612v-3.348h1.212v8.28h-1.212zm-13.752-5.844c0-.4.024-.728.072-.984h-.072a7.92 7.92 0 0 1-.432.936l-3.48 5.892h-1.236v-8.28h1.152v5.784c0 .336-.024.676-.072 1.02h.06c.136-.328.292-.64.468-.936l3.456-5.868h1.248v8.28h-1.164v-5.844zm-12.972 2.202c.248.364.372.89.372 1.578 0 .832-.196 1.4-.588 1.704-.392.304-1.068.456-2.028.456-1.136 0-2.1-.096-2.892-.288l.108-.864c.896.112 1.756.168 2.58.168.608 0 1.026-.092 1.254-.276.228-.184.342-.552.342-1.104 0-.6-.122-1.008-.366-1.224-.244-.216-.682-.324-1.314-.324h-1.416v-.948h1.416c.552 0 .934-.09 1.146-.27.212-.18.318-.526.318-1.038 0-.528-.114-.882-.342-1.062-.228-.18-.65-.27-1.266-.27-.536 0-1.256.048-2.16.144l-.096-.924a13.179 13.179 0 0 1 2.328-.192c1.032 0 1.746.15 2.142.45.396.3.594.87.594 1.71 0 .6-.11 1.054-.33 1.362-.22.308-.574.486-1.062.534v.048c.592.056 1.012.266 1.26.63zm-13.428 1.146h-3.3l-.768 2.496h-1.224l2.592-7.956c.064-.216.212-.324.444-.324h1.224c.24 0 .384.108.432.324l2.604 7.956h-1.236l-.768-2.496zm-1.284-4.188a9.713 9.713 0 0 1-.102-.336 9.713 9.713 0 0 0-.102-.336h-.324l-.192.672-.972 3.144h2.664l-.972-3.144zm-12.192-.588c-.28 0-.478.06-.594.18-.116.12-.174.336-.174.648v6.444h-1.2v-6.672c0-.48.146-.872.438-1.176.292-.304.666-.456 1.122-.456 1.584 0 2.732.036 3.444.108l-.048.924h-2.988zm-10.824 4.776h-3.3l-.768 2.496h-1.224l2.592-7.956c.064-.216.212-.324.444-.324h1.224c.24 0 .384.108.432.324l2.604 7.956h-1.236l-.768-2.496zm-1.284-4.188a9.713 9.713 0 0 1-.102-.336 9.713 9.713 0 0 0-.102-.336h-.324l-.192.672-.972 3.144h2.664l-.972-3.144zm-12.204-.6h-.24l-1.68 5.892c-.072.272-.244.408-.516.408h-1.044c-.28 0-.456-.136-.528-.408l-1.692-5.892h-.228l-.276 7.284h-1.188l.312-7.788c.016-.328.18-.492.492-.492h1.332c.248 0 .416.136.504.408l1.404 4.848c.08.288.172.66.276 1.116h.216c.096-.424.192-.8.288-1.128l1.392-4.836c.088-.272.264-.408.528-.408h1.308c.312 0 .476.164.492.492l.336 7.788h-1.2l-.288-7.284zm-18.48 3.804h3.648v.888h-3.648v-.888zm-8.832 3.48h-1.212v-7.212h-2.604v-1.068h6.444v1.068h-2.628v7.212zm-14.309-1.17c.099.116.27.174.51.174h3.3l.048.924c-.728.064-1.913.096-3.552.096-.513 0-.917-.134-1.212-.402-.297-.268-.444-.63-.444-1.086v-5.352c0-.456.147-.818.444-1.086.295-.268.699-.402 1.212-.402 1.639 0 2.824.032 3.552.096l-.048.936h-3.3c-.24 0-.411.058-.51.174-.101.116-.15.314-.15.594v1.656h3.492v.972h-3.492v2.112c0 .28.049.478.15.594zm-10.266-2.73h-3.612v3.9h-1.2v-8.28h1.2v3.348h3.612v-3.348h1.212v8.28H72.28v-3.9zm-14.652.756c-.6 0-1.205-.036-1.812-.108v3.252h-1.212v-8.28c.68-.072 1.644-.108 2.892-.108 1.024 0 1.73.184 2.118.552.388.368.582 1.056.582 2.064 0 1.016-.186 1.708-.558 2.076-.372.368-1.042.552-2.01.552zm1.032-3.888c-.216-.216-.616-.324-1.2-.324-.8 0-1.348.004-1.644.012v3.168h1.644c.584-.008.984-.12 1.2-.336.216-.216.324-.636.324-1.26s-.108-1.044-.324-1.26zm-15.27 5.862c.1.116.27.174.51.174h3.3l.048.924c-.728.064-1.912.096-3.552.096-.512 0-.916-.134-1.212-.402-.296-.268-.444-.63-.444-1.086v-5.352c0-.456.148-.818.444-1.086.296-.268.7-.402 1.212-.402 1.64 0 2.824.032 3.552.096l-.048.936h-3.3c-.24 0-.41.058-.51.174-.1.116-.15.314-.15.594v1.656h3.492v.972H43.24v2.112c0 .28.05.478.15.594zm-10.95 1.17h-1.212v-7.212h-2.604v-1.068h6.444v1.068H32.44v7.212zm-12.084-3.9h-3.612v3.9h-1.2v-8.28h1.2v3.348h3.612v-3.348h1.212v8.28h-1.212v-3.9zM6.604 52.869c0-.4.024-.728.072-.984h-.072a7.92 7.92 0 0 1-.432.936l-3.48 5.892H1.456v-8.28h1.152v5.784c0 .336-.024.676-.072 1.02h.06c.136-.328.292-.64.468-.936l3.456-5.868h1.248v8.28H6.604v-5.844z" class="cls-1"/></symbol><symbol id="pay" viewBox="0 0 62.688 65.91" preserveAspectRatio="xMidYMid"><circle cx="33" cy="20" r="19" class="cls-1"/><circle cx="33" cy="20" r="14" class="cls-2"/><path class="cls-1" d="M1 38h11v23H1z"/><path d="M10 40h11l6 4h12s4-.063 4 4c0 4.062-4 3.999-4 3.999h4s7.656-3.499 12-5c4.344-1.5 6 0 6 0s2.469 2.188-2 6.001c-4.469 3.812-20 11-20 11s-3.906 2.062-8 0c-4.094-2.063-14.406-5.032-16-5-1.594.031-5 0-5 0V40z" class="cls-3"/><path d="M25 52.999h2s.031-2 2-2h9V49h-9s-4 .093-4 3.999zM4 56v-3h3v3H4zm0-9h3v3H4v-3zm0-6h3v3H4v-3z" class="cls-4"/><text x="33" y="28" class="cls-5"><tspan class="cls-6">&#x20BD;</tspan></text></symbol><symbol id="regulations" viewBox="0 0 54 65" preserveAspectRatio="xMidYMid"><path d="M1 4v59.999h52V4H1z" class="cls-1"/><path class="cls-2" d="M6 9h42v50H6z"/><path class="cls-3" d="M16 1h22v8H16z"/><path d="M20 41.999h2V32h10V20l3 2.999L36 22l-5-5-5 5 1 .999L30 20v10H20v11.999z" class="cls-4"/><circle cx="22" cy="47" r="4" class="cls-3"/><circle cx="16" cy="25" r="4" class="cls-3"/><path d="M41 44h-2v-2h2v2zm-4-2v-2h2v2h-2zm-2 2v-2h2v2h-2zm0-6h2v2h-2v-2zm6 0v2h-2v-2h2z" class="cls-4"/></symbol><symbol id="search" viewBox="0 0 19.97 21.469" preserveAspectRatio="xMidYMid"><path d="M18.682 20.181a.999.999 0 0 1-1.414 0l-4.264-4.263A7.946 7.946 0 0 1 9 17a8 8 0 1 1 8-8 7.971 7.971 0 0 1-2.388 5.697l4.07 4.07a1 1 0 0 1 0 1.414z" class="cls-1"/></symbol><symbol id="washing" viewBox="0 0 66 66" preserveAspectRatio="xMidYMid"><path class="cls-1" d="M3 44h60v21H3z"/><path class="cls-2" d="M7 44h52v21H7z"/><path class="cls-3" d="M11 48h44v13H11z"/><path class="cls-2" d="M1 40h64v6H1z"/><path class="cls-1" d="M8 19h49v23H8z"/><path class="cls-3" d="M35 27h21v14H35z"/><path class="cls-4" d="M38 30h15v8H38z"/><path d="M14 39.999V29s.375-3 4-3 4 3 4 3v5h-2v-5s-.188-1.001-2-1.001c-1.813 0-2 1.001-2 1.001v10.999h-2z" class="cls-5"/><g><path class="cls-2" d="M6 1h53v20H6z"/><path class="cls-1" d="M10 5h20v12H10zM35 5h20v12H35z"/><path class="cls-6" d="M25 9h1v4h-1zM39 9h1v4h-1z"/></g></symbol></svg>